<svg width="29" height="13" viewBox="0 0 29 13" fill="none" xmlns="http://www.w3.org/2000/svg">
<path opacity="0.35" d="M1.125 4C1.125 2.067 2.692 0.5 4.625 0.5H21.625C23.558 0.5 25.125 2.067 25.125 4V9C25.125 10.933 23.558 12.5 21.625 12.5H4.625C2.692 12.5 1.125 10.933 1.125 9V4Z" stroke="white"/>
<path opacity="0.4" d="M26.625 5V9.22034C27.4741 8.86291 28.0262 8.0314 28.0262 7.11017C28.0262 6.18894 27.4741 5.35744 26.625 5Z" fill="white"/>
<path d="M2.625 4C2.625 2.89543 3.52043 2 4.625 2H21.625C22.7296 2 23.625 2.89543 23.625 4V9C23.625 10.1046 22.7296 11 21.625 11H4.625C3.52043 11 2.625 10.1046 2.625 9V4Z" fill="white"/>
</svg>
