<svg width="123" height="46" viewBox="0 0 123 46" fill="none" xmlns="http://www.w3.org/2000/svg">
<path d="M63.4394 18.27C63.5994 18.27 63.7494 18.33 63.8594 18.45C63.8794 18.48 63.9094 18.51 63.9294 18.54L66.5394 21.15L69.1594 18.53C69.1594 18.53 69.1994 18.47 69.2294 18.45C69.3994 18.28 69.6594 18.23 69.8794 18.32C70.0994 18.41 70.2494 18.63 70.2494 18.87C70.2494 19.03 70.1894 19.18 70.0794 19.29L67.3894 22L70.0094 24.61C70.0094 24.61 70.0694 24.65 70.0894 24.68C70.2594 24.85 70.3094 25.11 70.2194 25.33C70.1294 25.55 69.9094 25.7 69.6694 25.7C69.5094 25.7 69.3594 25.64 69.2494 25.53L66.5494 22.84L63.8594 25.54H63.8494C63.7994 25.58 63.7294 25.63 63.6594 25.66C63.4394 25.75 63.1794 25.7 63.0094 25.53C62.8994 25.42 62.8294 25.27 62.8294 25.11C62.8294 24.95 62.8894 24.8 63.0094 24.69C63.0394 24.66 63.0694 24.64 63.1094 24.61L65.7094 22.01L63.0094 19.31C62.9594 19.25 62.9094 19.18 62.8794 19.11C62.7894 18.89 62.8394 18.63 63.0094 18.46C63.1194 18.35 63.2694 18.28 63.4294 18.28L63.4394 18.27ZM70.5094 14.33H63.1194C63.0294 14.33 62.9494 14.33 62.8694 14.33C62.7194 14.33 62.5694 14.33 62.3794 14.33C62.0494 14.33 61.7094 14.36 61.3894 14.42C61.0894 14.47 60.8094 14.57 60.5394 14.7C60.2794 14.83 60.0294 15.01 59.8194 15.22C59.8194 15.22 59.7994 15.24 59.7694 15.27C59.7094 15.33 59.6994 15.35 59.6794 15.37C59.5794 15.46 59.4894 15.55 59.3994 15.64C59.3494 15.69 59.2994 15.74 59.2494 15.79L59.0694 15.97L56.7694 18.27C56.7694 18.27 56.7294 18.31 56.7194 18.32C56.6794 18.36 56.6294 18.41 56.5794 18.45L56.5194 18.51C56.5194 18.51 56.4894 18.54 56.4794 18.55L56.4394 18.59L56.3894 18.64L54.3294 20.7C54.3294 20.7 54.2494 20.79 54.1894 20.84C54.1894 20.84 54.1627 20.8667 54.1094 20.92C54.1094 20.92 54.0294 21 53.9494 21.08C53.7994 21.22 53.6694 21.38 53.5394 21.54L53.4994 21.59C53.4994 21.59 53.4394 21.67 53.4194 21.71C53.3694 21.89 53.3694 22.07 53.4194 22.25C53.4394 22.29 53.4694 22.33 53.4994 22.37L53.5394 22.42C53.6694 22.58 53.8094 22.73 53.9694 22.89C53.9994 22.92 54.0294 22.95 54.0594 22.99L54.2194 23.15C54.2194 23.15 54.2894 23.22 54.3194 23.25L56.3894 25.32L56.5494 25.47C56.5494 25.47 56.5794 25.5 56.5894 25.51C56.6694 25.59 56.6994 25.62 56.7294 25.65C56.7294 25.65 56.7494 25.67 56.7794 25.7L59.0794 28.01C59.2494 28.18 59.3194 28.25 59.4194 28.35C59.5394 28.47 59.6094 28.54 59.6894 28.62C59.7094 28.64 59.7094 28.64 59.7794 28.72C59.7994 28.74 59.8194 28.76 59.8294 28.77C60.0394 28.98 60.2794 29.16 60.5394 29.29C60.8094 29.43 61.0994 29.52 61.3894 29.57C61.7194 29.62 62.0494 29.65 62.3894 29.66C62.5594 29.66 62.7194 29.66 62.8794 29.66H70.7194C70.8594 29.66 71.0094 29.66 71.2194 29.66C71.5594 29.66 71.8894 29.63 72.2194 29.57C72.5194 29.52 72.8094 29.42 73.0794 29.29C73.3494 29.15 73.5894 28.98 73.7994 28.77C74.0094 28.56 74.1894 28.31 74.3294 28.05C74.4694 27.78 74.5594 27.49 74.6094 27.19C74.6594 26.86 74.6894 26.52 74.6994 26.17C74.6994 26.07 74.6994 25.99 74.6994 25.8C74.6994 25.76 74.6994 25.74 74.6994 25.72V18.23C74.6994 18.23 74.6994 18.21 74.6994 18.19C74.6994 18.07 74.6994 18.02 74.6994 17.96C74.6994 17.9 74.6994 17.85 74.6994 17.79C74.6994 17.46 74.6694 17.12 74.6094 16.8C74.5594 16.5 74.4594 16.21 74.3294 15.95C74.1894 15.68 74.0194 15.44 73.8094 15.23C73.5994 15.02 73.3594 14.84 73.0994 14.71C72.8294 14.57 72.5394 14.48 72.2594 14.43C71.9294 14.38 71.5994 14.35 71.2594 14.34C71.0794 14.34 70.9194 14.34 70.7694 14.34C70.6894 14.34 70.6194 14.34 70.5194 14.34L70.5094 14.33ZM70.5994 13H70.7594C70.9194 13 71.0894 13 71.2694 13C71.6694 13 72.0694 13.04 72.4694 13.11C72.8994 13.18 73.3094 13.32 73.6994 13.52C74.0894 13.72 74.4494 13.98 74.7594 14.29C75.0694 14.6 75.3294 14.95 75.5294 15.35C75.7194 15.74 75.8594 16.15 75.9294 16.58C75.9894 16.97 76.0294 17.37 76.0294 17.76C76.0294 17.82 76.0294 17.87 76.0294 17.94C76.0294 18.01 76.0294 18.06 76.0294 18.18C76.0294 18.2133 76.0294 18.25 76.0294 18.29V25.69C76.0294 25.73 76.0294 25.77 76.0294 25.81C76.0294 26 76.0294 26.09 76.0294 26.19C76.0294 26.59 75.9894 27 75.9194 27.4C75.8494 27.83 75.7094 28.25 75.5094 28.64C75.3094 29.03 75.0494 29.39 74.7394 29.7C74.4294 30.01 74.0694 30.27 73.6694 30.47C73.2794 30.67 72.8594 30.8 72.4294 30.88C72.0294 30.95 71.6294 30.98 71.2294 30.99C71.0194 30.99 70.8594 30.99 70.7094 30.99H62.8594C62.6894 30.99 62.5194 30.99 62.3494 30.99C61.9494 30.99 61.5494 30.95 61.1494 30.88C60.7194 30.81 60.3094 30.67 59.9194 30.47C59.5294 30.27 59.1694 30.01 58.8794 29.72C58.8594 29.7 58.8394 29.68 58.7894 29.63C58.6594 29.5 58.5794 29.42 58.4494 29.3C58.4094 29.26 58.3794 29.23 58.3394 29.19L58.1094 28.96L55.8294 26.68C55.7594 26.61 55.7194 26.57 55.6494 26.51C55.6094 26.47 55.5794 26.44 55.5394 26.4L55.4194 26.28L53.3494 24.2L53.3094 24.16L53.2094 24.05C53.2094 24.05 53.1894 24.03 53.1694 24.01C53.0994 23.94 53.0394 23.88 53.0094 23.84C52.8394 23.67 52.6694 23.49 52.5194 23.3C52.3794 23.15 52.2594 22.97 52.1794 22.78L52.1594 22.72C52.0094 22.26 52.0094 21.76 52.1594 21.29L52.1794 21.23C52.2594 21.04 52.3794 20.86 52.5194 20.71C52.6694 20.52 52.8394 20.34 52.9994 20.18C53.0694 20.11 53.1194 20.05 53.1794 19.99L53.2094 19.96C53.2094 19.96 53.2194 19.95 53.2294 19.94C53.2794 19.89 53.3194 19.85 53.3594 19.81L55.4294 17.74L55.4794 17.69C55.4794 17.69 55.4994 17.67 55.5194 17.65C55.5694 17.6 55.5994 17.57 55.6294 17.54C55.6894 17.48 55.7494 17.42 55.8194 17.35L55.8394 17.33C55.8394 17.33 55.8694 17.3 55.8894 17.28L55.9694 17.2C55.9694 17.2 55.9994 17.17 56.0194 17.15L56.1494 17.02C56.1494 17.02 56.1994 16.97 56.2294 16.94L56.8494 16.32C57.0194 16.15 57.2094 15.96 57.4194 15.75L58.1194 15.05C58.2194 14.95 58.3094 14.86 58.3894 14.79L58.4594 14.72C58.5594 14.62 58.6594 14.53 58.7594 14.42C58.8494 14.33 58.8594 14.32 58.8694 14.3C59.1794 13.99 59.5294 13.73 59.9294 13.53C60.3194 13.34 60.7294 13.2 61.1594 13.12C61.5494 13.06 61.9494 13.02 62.3394 13.02C62.5294 13.02 62.6994 13.02 62.8494 13.02C62.9094 13.02 62.9594 13.02 63.0194 13.02H70.5894L70.5994 13Z" fill="black"/>
</svg>
