<svg width="20" height="20" viewBox="0 0 20 20" fill="none" xmlns="http://www.w3.org/2000/svg">
<g id="camera-off" clip-path="url(#clip0_122_9612)">
<path id="Icon" d="M4.1665 4.16675H4.51555C4.62674 4.16675 4.68233 4.16675 4.73266 4.1637C5.37535 4.12478 5.93813 3.71915 6.17829 3.12175C6.1971 3.07496 6.21468 3.02222 6.24984 2.91675C6.285 2.81127 6.30258 2.75853 6.32138 2.71175C6.56154 2.11435 7.12433 1.70872 7.76702 1.6698C7.81735 1.66675 7.87294 1.66675 7.98412 1.66675H12.0156C12.1267 1.66675 12.1823 1.66675 12.2327 1.6698C12.8753 1.70872 13.4381 2.11435 13.6783 2.71175C13.6971 2.75853 13.7147 2.81127 13.7498 2.91675C13.785 3.02222 13.8026 3.07496 13.8214 3.12175C14.0615 3.71915 14.6243 4.12478 15.267 4.1637C15.3173 4.16675 15.3766 4.16675 15.4952 4.16675C15.8029 4.16675 15.9567 4.16675 16.0797 4.17893C17.2654 4.29642 18.2035 5.23447 18.321 6.42026C18.3332 6.5432 18.3332 6.68917 18.3332 6.9811V15.0001C18.3332 15.9042 17.8533 16.6962 17.1343 17.1352M12.5532 12.5596C13.04 11.9802 13.3332 11.2327 13.3332 10.4167C13.3332 8.5758 11.8408 7.08341 9.99984 7.08341C9.18448 7.08341 8.4375 7.37616 7.85827 7.86228M18.3332 18.3334L1.6665 1.66675M1.6665 6.25008V13.5001C1.6665 14.9002 1.6665 15.6003 1.93899 16.1351C2.17867 16.6055 2.56112 16.9879 3.03153 17.2276C3.56631 17.5001 4.26637 17.5001 5.6665 17.5001H12.9165M9.99984 13.7501C8.15889 13.7501 6.6665 12.2577 6.6665 10.4167" stroke="#737373" stroke-width="1.5" stroke-linecap="round" stroke-linejoin="round"/>
</g>
<defs>
<clipPath id="clip0_122_9612">
<rect width="20" height="20" fill="white"/>
</clipPath>
</defs>
</svg>
