<svg width="25" height="24" viewBox="0 0 25 24" fill="none" xmlns="http://www.w3.org/2000/svg">
<g id="check-square-broken">
<path id="Icon" d="M9.3335 11L12.3335 14L22.3335 4M16.3335 3H8.1335C6.45334 3 5.61326 3 4.97152 3.32698C4.40704 3.6146 3.9481 4.07354 3.66048 4.63803C3.3335 5.27976 3.3335 6.11984 3.3335 7.8V16.2C3.3335 17.8802 3.3335 18.7202 3.66048 19.362C3.9481 19.9265 4.40704 20.3854 4.97152 20.673C5.61326 21 6.45334 21 8.1335 21H16.5335C18.2137 21 19.0537 21 19.6955 20.673C20.26 20.3854 20.7189 19.9265 21.0065 19.362C21.3335 18.7202 21.3335 17.8802 21.3335 16.2V12" stroke="#737373" stroke-width="2" stroke-linecap="round" stroke-linejoin="round"/>
</g>
</svg>
