<svg width="25" height="24" viewBox="0 0 25 24" fill="none" xmlns="http://www.w3.org/2000/svg">
<path d="M9.625 11L12.625 14L22.625 4M16.625 3H8.425C6.74484 3 5.90476 3 5.26303 3.32698C4.69854 3.6146 4.2396 4.07354 3.95198 4.63803C3.625 5.27976 3.625 6.11984 3.625 7.8V16.2C3.625 17.8802 3.625 18.7202 3.95198 19.362C4.2396 19.9265 4.69854 20.3854 5.26303 20.673C5.90476 21 6.74484 21 8.425 21H16.825C18.5052 21 19.3452 21 19.987 20.673C20.5515 20.3854 21.0104 19.9265 21.298 19.362C21.625 18.7202 21.625 17.8802 21.625 16.2V12" stroke="#737373" stroke-width="2" stroke-linecap="round" stroke-linejoin="round"/>
</svg>
