<svg width="14" height="14" viewBox="0 0 14 14" fill="none" xmlns="http://www.w3.org/2000/svg">
<path d="M10.3333 5.88886L8.11107 3.66664M1.72217 12.2778L3.60237 12.0688C3.83209 12.0433 3.94695 12.0306 4.0543 11.9958C4.14955 11.965 4.24019 11.9214 4.32377 11.8663C4.41798 11.8042 4.49969 11.7224 4.66313 11.559L12 4.22219C12.6136 3.60855 12.6136 2.61362 12 1.99997C11.3863 1.38632 10.3914 1.38632 9.77774 1.99997L2.44091 9.33679C2.27747 9.50022 2.19575 9.58194 2.13363 9.67615C2.07852 9.75972 2.03495 9.85037 2.00412 9.94561C1.96937 10.053 1.9566 10.1678 1.93108 10.3975L1.72217 12.2778Z" stroke="black" stroke-linecap="round" stroke-linejoin="round"/>
</svg>
