<svg width="14" height="14" viewBox="0 0 14 14" fill="none" xmlns="http://www.w3.org/2000/svg">
<g id="edit-02">
<path id="Icon" d="M9.9998 5.55567L7.77758 3.33345M1.38867 11.9446L3.26888 11.7356C3.49859 11.7101 3.61345 11.6974 3.72081 11.6626C3.81606 11.6318 3.9067 11.5882 3.99028 11.5331C4.08448 11.471 4.1662 11.3893 4.32963 11.2258L11.6665 3.889C12.2801 3.27535 12.2801 2.28043 11.6665 1.66678C11.0528 1.05313 10.0579 1.05313 9.44424 1.66678L2.10741 9.0036C1.94398 9.16703 1.86226 9.24875 1.80014 9.34296C1.74502 9.42653 1.70146 9.51718 1.67062 9.61242C1.63587 9.71978 1.62311 9.83464 1.59758 10.0644L1.38867 11.9446Z" stroke="black" stroke-linecap="round" stroke-linejoin="round"/>
</g>
</svg>
