<svg width="25" height="24" viewBox="0 0 25 24" fill="none" xmlns="http://www.w3.org/2000/svg">
<path d="M9.125 21V13.6C9.125 13.0399 9.125 12.7599 9.234 12.546C9.32987 12.3578 9.48285 12.2049 9.67101 12.109C9.88493 12 10.165 12 10.725 12H13.525C14.0851 12 14.3651 12 14.579 12.109C14.7672 12.2049 14.9201 12.3578 15.016 12.546C15.125 12.7599 15.125 13.0399 15.125 13.6V21M2.125 9.5L11.165 2.72C11.5093 2.46181 11.6814 2.33271 11.8704 2.28294C12.0373 2.23902 12.2127 2.23902 12.3796 2.28295C12.5686 2.33271 12.7407 2.46181 13.085 2.72L22.125 9.5M4.125 8V17.8C4.125 18.9201 4.125 19.4802 4.34299 19.908C4.53474 20.2843 4.8407 20.5903 5.21702 20.782C5.64485 21 6.2049 21 7.325 21H16.925C18.0451 21 18.6052 21 19.033 20.782C19.4093 20.5903 19.7153 20.2843 19.907 19.908C20.125 19.4802 20.125 18.9201 20.125 17.8V8L14.045 3.44C13.3565 2.92361 13.0122 2.66542 12.6341 2.56589C12.3004 2.47804 11.9496 2.47804 11.6159 2.56589C11.2378 2.66542 10.8935 2.92361 10.205 3.44L4.125 8Z" stroke="#737373" stroke-width="2" stroke-linecap="round" stroke-linejoin="round"/>
</svg>
