<svg width="25" height="24" viewBox="0 0 25 24" fill="none" xmlns="http://www.w3.org/2000/svg">
<g id="home-03">
<path id="Icon" d="M9.3335 21V13.6C9.3335 13.0399 9.3335 12.7599 9.44249 12.546C9.53837 12.3578 9.69135 12.2049 9.87951 12.109C10.0934 12 10.3734 12 10.9335 12H13.7335C14.2936 12 14.5736 12 14.7875 12.109C14.9757 12.2049 15.1286 12.3578 15.2245 12.546C15.3335 12.7599 15.3335 13.0399 15.3335 13.6V21M2.3335 9.5L11.3735 2.72C11.7178 2.46181 11.8899 2.33271 12.0789 2.28294C12.2458 2.23902 12.4212 2.23902 12.5881 2.28295C12.7771 2.33271 12.9492 2.46181 13.2935 2.72L22.3335 9.5M4.3335 8V17.8C4.3335 18.9201 4.3335 19.4802 4.55149 19.908C4.74323 20.2843 5.0492 20.5903 5.42552 20.782C5.85334 21 6.41339 21 7.5335 21H17.1335C18.2536 21 18.8137 21 19.2415 20.782C19.6178 20.5903 19.9238 20.2843 20.1155 19.908C20.3335 19.4802 20.3335 18.9201 20.3335 17.8V8L14.2535 3.44C13.565 2.92361 13.2207 2.66542 12.8426 2.56589C12.5089 2.47804 12.1581 2.47804 11.8244 2.56589C11.4463 2.66542 11.102 2.92361 10.4135 3.44L4.3335 8Z" stroke="#737373" stroke-width="2" stroke-linecap="round" stroke-linejoin="round"/>
</g>
</svg>
