<svg width="28" height="27" viewBox="0 0 28 27" fill="none" xmlns="http://www.w3.org/2000/svg">
<path d="M24.125 5.0625H17.375C16.7201 5.0625 16.0741 5.21499 15.4883 5.50789C14.9025 5.80078 14.393 6.22605 14 6.75C13.607 6.22605 13.0975 5.80078 12.5117 5.50789C11.9259 5.21499 11.2799 5.0625 10.625 5.0625H3.875C3.42745 5.0625 2.99822 5.24029 2.68176 5.55676C2.36529 5.87322 2.1875 6.30245 2.1875 6.75V20.25C2.1875 20.6976 2.36529 21.1268 2.68176 21.4432C2.99822 21.7597 3.42745 21.9375 3.875 21.9375H10.625C11.2963 21.9375 11.9402 22.2042 12.4149 22.6789C12.8896 23.1536 13.1562 23.7974 13.1562 24.4688C13.1562 24.6925 13.2451 24.9071 13.4034 25.0654C13.5616 25.2236 13.7762 25.3125 14 25.3125C14.2238 25.3125 14.4384 25.2236 14.5966 25.0654C14.7549 24.9071 14.8438 24.6925 14.8438 24.4688C14.8438 23.7974 15.1104 23.1536 15.5851 22.6789C16.0598 22.2042 16.7037 21.9375 17.375 21.9375H24.125C24.5726 21.9375 25.0018 21.7597 25.3182 21.4432C25.6347 21.1268 25.8125 20.6976 25.8125 20.25V6.75C25.8125 6.30245 25.6347 5.87322 25.3182 5.55676C25.0018 5.24029 24.5726 5.0625 24.125 5.0625ZM10.625 20.25H3.875V6.75H10.625C11.2963 6.75 11.9402 7.01668 12.4149 7.49139C12.8896 7.96609 13.1562 8.60992 13.1562 9.28125V21.0938C12.4267 20.5448 11.538 20.2485 10.625 20.25ZM24.125 20.25H17.375C16.462 20.2485 15.5733 20.5448 14.8438 21.0938V9.28125C14.8438 8.60992 15.1104 7.96609 15.5851 7.49139C16.0598 7.01668 16.7037 6.75 17.375 6.75H24.125V20.25ZM17.375 9.28125H21.5938C21.8175 9.28125 22.0321 9.37014 22.1904 9.52838C22.3486 9.68661 22.4375 9.90122 22.4375 10.125C22.4375 10.3488 22.3486 10.5634 22.1904 10.7216C22.0321 10.8799 21.8175 10.9688 21.5938 10.9688H17.375C17.1512 10.9688 16.9366 10.8799 16.7784 10.7216C16.6201 10.5634 16.5312 10.3488 16.5312 10.125C16.5312 9.90122 16.6201 9.68661 16.7784 9.52838C16.9366 9.37014 17.1512 9.28125 17.375 9.28125ZM22.4375 13.5C22.4375 13.7238 22.3486 13.9384 22.1904 14.0966C22.0321 14.2549 21.8175 14.3438 21.5938 14.3438H17.375C17.1512 14.3438 16.9366 14.2549 16.7784 14.0966C16.6201 13.9384 16.5312 13.7238 16.5312 13.5C16.5312 13.2762 16.6201 13.0616 16.7784 12.9034C16.9366 12.7451 17.1512 12.6562 17.375 12.6562H21.5938C21.8175 12.6562 22.0321 12.7451 22.1904 12.9034C22.3486 13.0616 22.4375 13.2762 22.4375 13.5ZM22.4375 16.875C22.4375 17.0988 22.3486 17.3134 22.1904 17.4716C22.0321 17.6299 21.8175 17.7188 21.5938 17.7188H17.375C17.1512 17.7188 16.9366 17.6299 16.7784 17.4716C16.6201 17.3134 16.5312 17.0988 16.5312 16.875C16.5312 16.6512 16.6201 16.4366 16.7784 16.2784C16.9366 16.1201 17.1512 16.0312 17.375 16.0312H21.5938C21.8175 16.0312 22.0321 16.1201 22.1904 16.2784C22.3486 16.4366 22.4375 16.6512 22.4375 16.875Z" fill="black"/>
</svg>
