<svg width="28" height="27" viewBox="0 0 28 27" fill="none" xmlns="http://www.w3.org/2000/svg">
<path d="M23.5797 10.9445L15.1422 2.98375C15.1381 2.98015 15.1342 2.97627 15.1306 2.97215C14.82 2.68963 14.4152 2.53308 13.9953 2.53308C13.5754 2.53308 13.1705 2.68963 12.8599 2.97215L12.8483 2.98375L4.42027 10.9445C4.24836 11.1026 4.11113 11.2947 4.01727 11.5085C3.92341 11.7224 3.87496 11.9534 3.875 12.187V21.9375C3.875 22.3851 4.05279 22.8143 4.36926 23.1308C4.68572 23.4472 5.11495 23.625 5.5625 23.625H10.625C11.0726 23.625 11.5018 23.4472 11.8182 23.1308C12.1347 22.8143 12.3125 22.3851 12.3125 21.9375V16.875H15.6875V21.9375C15.6875 22.3851 15.8653 22.8143 16.1818 23.1308C16.4982 23.4472 16.9274 23.625 17.375 23.625H22.4375C22.8851 23.625 23.3143 23.4472 23.6307 23.1308C23.9472 22.8143 24.125 22.3851 24.125 21.9375V12.187C24.125 11.9534 24.0766 11.7224 23.9827 11.5085C23.8889 11.2947 23.7516 11.1026 23.5797 10.9445ZM22.4375 21.9375H17.375V16.875C17.375 16.4275 17.1972 15.9983 16.8807 15.6818C16.5643 15.3653 16.1351 15.1875 15.6875 15.1875H12.3125C11.8649 15.1875 11.4357 15.3653 11.1193 15.6818C10.8028 15.9983 10.625 16.4275 10.625 16.875V21.9375H5.5625V12.187L5.5741 12.1764L14 4.21879L22.427 12.1743L22.4386 12.1848L22.4375 21.9375Z" fill="#00AE43"/>
</svg>
