<svg width="19" height="12" viewBox="0 0 19 12" fill="none" xmlns="http://www.w3.org/2000/svg">
<path d="M10.625 3C10.625 2.44772 11.0727 2 11.625 2H12.625C13.1773 2 13.625 2.44772 13.625 3V11C13.625 11.5523 13.1773 12 12.625 12H11.625C11.0727 12 10.625 11.5523 10.625 11V3Z" fill="white"/>
<path d="M15.625 1C15.625 0.447715 16.0727 0 16.625 0H17.625C18.1773 0 18.625 0.447715 18.625 1V11C18.625 11.5523 18.1773 12 17.625 12H16.625C16.0727 12 15.625 11.5523 15.625 11V1Z" fill="white"/>
<path d="M5.625 6.5C5.625 5.94772 6.07272 5.5 6.625 5.5H7.625C8.17728 5.5 8.625 5.94772 8.625 6.5V11C8.625 11.5523 8.17728 12 7.625 12H6.625C6.07272 12 5.625 11.5523 5.625 11V6.5Z" fill="white"/>
<path d="M0.625 9C0.625 8.44772 1.07272 8 1.625 8H2.625C3.17728 8 3.625 8.44772 3.625 9V11C3.625 11.5523 3.17728 12 2.625 12H1.625C1.07272 12 0.625 11.5523 0.625 11V9Z" fill="white"/>
</svg>
