<svg width="21" height="20" viewBox="0 0 21 20" fill="none" xmlns="http://www.w3.org/2000/svg">
<g clip-path="url(#clip0_79_2902)">
<path d="M19.9302 10.2303C19.9302 9.55056 19.8751 8.86711 19.7575 8.19836H10.3252V12.0492H15.7266C15.5025 13.2911 14.7823 14.3898 13.7277 15.0879V17.5866H16.9502C18.8426 15.8449 19.9302 13.2728 19.9302 10.2303Z" fill="#4285F4"/>
<path d="M10.3251 20.0006C13.0221 20.0006 15.2966 19.1151 16.9538 17.5865L13.7313 15.0879C12.8347 15.6979 11.6773 16.0433 10.3287 16.0433C7.71989 16.0433 5.50788 14.2832 4.7142 11.9169H1.38882V14.4927C3.08642 17.8695 6.54407 20.0006 10.3251 20.0006Z" fill="#34A853"/>
<path d="M4.71064 11.9169C4.29176 10.6749 4.29176 9.33008 4.71064 8.08811V5.51233H1.38895C-0.0293885 8.33798 -0.0293885 11.667 1.38895 14.4927L4.71064 11.9169Z" fill="#FBBC04"/>
<path d="M10.3251 3.95805C11.7508 3.936 13.1287 4.47247 14.1612 5.45722L17.0162 2.60218C15.2084 0.904587 12.809 -0.0287217 10.3251 0.000673888C6.54407 0.000673888 3.08642 2.13185 1.38882 5.51234L4.71052 8.08813C5.50053 5.71811 7.71622 3.95805 10.3251 3.95805Z" fill="#EA4335"/>
</g>
<defs>
<clipPath id="clip0_79_2902">
<rect width="20" height="20" fill="white" transform="translate(0.125)"/>
</clipPath>
</defs>
</svg>
