<svg width="30" height="30" viewBox="0 0 30 30" fill="none" xmlns="http://www.w3.org/2000/svg">
<path d="M8.125 8.125H8.1375M21.875 8.125H21.8875M8.125 21.875H8.1375M16.25 16.25H16.2625M21.875 21.875H21.8875M21.25 26.25H26.25V21.25M17.5 20.625V26.25M26.25 17.5H20.625M19.5 12.5H24.25C24.9501 12.5 25.3001 12.5 25.5675 12.3638C25.8027 12.2439 25.9939 12.0527 26.1138 11.8175C26.25 11.5501 26.25 11.2001 26.25 10.5V5.75C26.25 5.04993 26.25 4.6999 26.1138 4.43251C25.9939 4.19731 25.8027 4.00608 25.5675 3.88624C25.3001 3.75 24.9501 3.75 24.25 3.75H19.5C18.7999 3.75 18.4499 3.75 18.1825 3.88624C17.9473 4.00608 17.7561 4.19731 17.6362 4.43251C17.5 4.6999 17.5 5.04993 17.5 5.75V10.5C17.5 11.2001 17.5 11.5501 17.6362 11.8175C17.7561 12.0527 17.9473 12.2439 18.1825 12.3638C18.4499 12.5 18.7999 12.5 19.5 12.5ZM5.75 12.5H10.5C11.2001 12.5 11.5501 12.5 11.8175 12.3638C12.0527 12.2439 12.2439 12.0527 12.3638 11.8175C12.5 11.5501 12.5 11.2001 12.5 10.5V5.75C12.5 5.04993 12.5 4.6999 12.3638 4.43251C12.2439 4.19731 12.0527 4.00608 11.8175 3.88624C11.5501 3.75 11.2001 3.75 10.5 3.75H5.75C5.04993 3.75 4.6999 3.75 4.43251 3.88624C4.19731 4.00608 4.00608 4.19731 3.88624 4.43251C3.75 4.6999 3.75 5.04993 3.75 5.75V10.5C3.75 11.2001 3.75 11.5501 3.88624 11.8175C4.00608 12.0527 4.19731 12.2439 4.43251 12.3638C4.6999 12.5 5.04993 12.5 5.75 12.5ZM5.75 26.25H10.5C11.2001 26.25 11.5501 26.25 11.8175 26.1138C12.0527 25.9939 12.2439 25.8027 12.3638 25.5675C12.5 25.3001 12.5 24.9501 12.5 24.25V19.5C12.5 18.7999 12.5 18.4499 12.3638 18.1825C12.2439 17.9473 12.0527 17.7561 11.8175 17.6362C11.5501 17.5 11.2001 17.5 10.5 17.5H5.75C5.04993 17.5 4.6999 17.5 4.43251 17.6362C4.19731 17.7561 4.00608 17.9473 3.88624 18.1825C3.75 18.4499 3.75 18.7999 3.75 19.5V24.25C3.75 24.9501 3.75 25.3001 3.88624 25.5675C4.00608 25.8027 4.19731 25.9939 4.43251 26.1138C4.6999 26.25 5.04993 26.25 5.75 26.25Z" stroke="white" stroke-width="2" stroke-linecap="round" stroke-linejoin="round"/>
</svg>
