<svg width="25" height="24" viewBox="0 0 25 24" fill="none" xmlns="http://www.w3.org/2000/svg">
<g id="settings-01">
<g id="Icon">
<path d="M12.3335 15C13.9904 15 15.3335 13.6569 15.3335 12C15.3335 10.3431 13.9904 9 12.3335 9C10.6766 9 9.3335 10.3431 9.3335 12C9.3335 13.6569 10.6766 15 12.3335 15Z" stroke="#737373" stroke-width="2" stroke-linecap="round" stroke-linejoin="round"/>
<path d="M19.0608 14.7273C18.9398 15.0015 18.9037 15.3056 18.9571 15.6005C19.0106 15.8954 19.1512 16.1676 19.3608 16.3818L19.4153 16.4364C19.5844 16.6052 19.7185 16.8057 19.81 17.0265C19.9015 17.2472 19.9486 17.4838 19.9486 17.7227C19.9486 17.9617 19.9015 18.1983 19.81 18.419C19.7185 18.6397 19.5844 18.8402 19.4153 19.0091C19.2465 19.1781 19.0459 19.3122 18.8252 19.4037C18.6045 19.4952 18.3679 19.5423 18.129 19.5423C17.89 19.5423 17.6534 19.4952 17.4327 19.4037C17.212 19.3122 17.0114 19.1781 16.8426 19.0091L16.788 18.9545C16.5738 18.745 16.3017 18.6044 16.0068 18.5509C15.7119 18.4974 15.4077 18.5335 15.1335 18.6545C14.8646 18.7698 14.6353 18.9611 14.4738 19.205C14.3123 19.4489 14.2256 19.7347 14.2244 20.0273V20.1818C14.2244 20.664 14.0328 21.1265 13.6919 21.4675C13.3509 21.8084 12.8884 22 12.4062 22C11.924 22 11.4616 21.8084 11.1206 21.4675C10.7796 21.1265 10.588 20.664 10.588 20.1818V20.1C10.581 19.7991 10.4836 19.5073 10.3085 19.2625C10.1334 19.0176 9.88871 18.8312 9.60622 18.7273C9.33203 18.6063 9.02787 18.5702 8.73296 18.6236C8.43806 18.6771 8.16593 18.8177 7.95168 19.0273L7.89713 19.0818C7.72827 19.2509 7.52775 19.385 7.30702 19.4765C7.0863 19.568 6.84971 19.6151 6.61077 19.6151C6.37183 19.6151 6.13524 19.568 5.91451 19.4765C5.69379 19.385 5.49327 19.2509 5.32441 19.0818C5.15536 18.913 5.02125 18.7124 4.92975 18.4917C4.83825 18.271 4.79116 18.0344 4.79116 17.7955C4.79116 17.5565 4.83825 17.3199 4.92975 17.0992C5.02125 16.8785 5.15536 16.678 5.32441 16.5091L5.37895 16.4545C5.58853 16.2403 5.72912 15.9682 5.78259 15.6733C5.83606 15.3784 5.79996 15.0742 5.67895 14.8C5.56371 14.5311 5.37236 14.3018 5.12846 14.1403C4.88456 13.9788 4.59876 13.8921 4.30622 13.8909H4.15168C3.66947 13.8909 3.207 13.6994 2.86603 13.3584C2.52505 13.0174 2.3335 12.5549 2.3335 12.0727C2.3335 11.5905 2.52505 11.1281 2.86603 10.7871C3.207 10.4461 3.66947 10.2545 4.15168 10.2545H4.2335C4.5344 10.2475 4.82623 10.1501 5.07104 9.97501C5.31585 9.79991 5.50233 9.55521 5.60622 9.27273C5.72724 8.99853 5.76334 8.69437 5.70986 8.39947C5.65639 8.10456 5.5158 7.83244 5.30622 7.61818L5.25168 7.56364C5.08263 7.39478 4.94852 7.19425 4.85702 6.97353C4.76553 6.7528 4.71843 6.51621 4.71843 6.27727C4.71843 6.03834 4.76553 5.80174 4.85702 5.58102C4.94852 5.36029 5.08263 5.15977 5.25168 4.99091C5.42054 4.82186 5.62106 4.68775 5.84179 4.59626C6.06251 4.50476 6.2991 4.45766 6.53804 4.45766C6.77698 4.45766 7.01357 4.50476 7.2343 4.59626C7.45502 4.68775 7.65555 4.82186 7.82441 4.99091L7.87895 5.04545C8.0932 5.25503 8.36533 5.39562 8.66023 5.4491C8.95514 5.50257 9.2593 5.46647 9.5335 5.34545H9.60622C9.8751 5.23022 10.1044 5.03887 10.2659 4.79497C10.4275 4.55107 10.5141 4.26526 10.5153 3.97273V3.81818C10.5153 3.33597 10.7069 2.87351 11.0478 2.53253C11.3888 2.19156 11.8513 2 12.3335 2C12.8157 2 13.2782 2.19156 13.6191 2.53253C13.9601 2.87351 14.1517 3.33597 14.1517 3.81818V3.9C14.1528 4.19253 14.2395 4.47834 14.401 4.72224C14.5626 4.96614 14.7919 5.15749 15.0608 5.27273C15.335 5.39374 15.6391 5.42984 15.934 5.37637C16.2289 5.3229 16.5011 5.18231 16.7153 4.97273L16.7699 4.91818C16.9387 4.74913 17.1392 4.61503 17.36 4.52353C17.5807 4.43203 17.8173 4.38493 18.0562 4.38493C18.2952 4.38493 18.5318 4.43203 18.7525 4.52353C18.9732 4.61503 19.1737 4.74913 19.3426 4.91818C19.5116 5.08704 19.6457 5.28757 19.7372 5.50829C19.8287 5.72901 19.8758 5.96561 19.8758 6.20455C19.8758 6.44348 19.8287 6.68008 19.7372 6.9008C19.6457 7.12152 19.5116 7.32205 19.3426 7.49091L19.288 7.54545C19.0785 7.75971 18.9379 8.03183 18.8844 8.32674C18.8309 8.62164 18.867 8.9258 18.988 9.2V9.27273C19.1033 9.54161 19.2946 9.77093 19.5385 9.93245C19.7824 10.094 20.0682 10.1807 20.3608 10.1818H20.5153C20.9975 10.1818 21.46 10.3734 21.801 10.7144C22.1419 11.0553 22.3335 11.5178 22.3335 12C22.3335 12.4822 22.1419 12.9447 21.801 13.2856C21.46 13.6266 20.9975 13.8182 20.5153 13.8182H20.4335C20.141 13.8193 19.8552 13.906 19.6113 14.0676C19.3674 14.2291 19.176 14.4584 19.0608 14.7273Z" stroke="#737373" stroke-width="2" stroke-linecap="round" stroke-linejoin="round"/>
</g>
</g>
</svg>
