<svg width="18" height="12" viewBox="0 0 18 12" fill="none" xmlns="http://www.w3.org/2000/svg">
<path fill-rule="evenodd" clip-rule="evenodd" d="M9.12547 2.58753C11.592 2.58764 13.9643 3.55505 15.7519 5.28982C15.8865 5.42375 16.1016 5.42206 16.2342 5.28603L17.521 3.96045C17.5881 3.89146 17.6256 3.798 17.625 3.70076C17.6244 3.60353 17.5859 3.51052 17.518 3.44234C12.8261 -1.14745 5.42408 -1.14745 0.732163 3.44234C0.664197 3.51047 0.625634 3.60345 0.625008 3.70069C0.624381 3.79792 0.661742 3.89141 0.728824 3.96045L2.01596 5.28603C2.14846 5.42226 2.36378 5.42396 2.49831 5.28982C4.28616 3.55494 6.65867 2.58752 9.12547 2.58753ZM9.16091 6.58937C10.5161 6.58929 11.823 7.10346 12.8275 8.03199C12.9634 8.16376 13.1774 8.16091 13.3099 8.02555L14.5952 6.69997C14.6629 6.63044 14.7004 6.53611 14.6994 6.4381C14.6985 6.34008 14.659 6.24656 14.59 6.17844C11.5309 3.27385 6.79353 3.27385 3.73445 6.17844C3.66535 6.24655 3.62592 6.34013 3.62502 6.43817C3.62411 6.53622 3.6618 6.63054 3.72962 6.69997L5.01454 8.02555C5.14699 8.16091 5.36102 8.16376 5.49689 8.03199C6.50078 7.10408 7.80659 6.58995 9.16091 6.58937ZM11.7746 9.17671C11.7765 9.27501 11.7387 9.36977 11.6699 9.43863L9.44665 11.7289C9.38148 11.7962 9.29262 11.834 9.19991 11.834C9.1072 11.834 9.01834 11.7962 8.95317 11.7289L6.72952 9.43863C6.66083 9.36972 6.62304 9.27492 6.62508 9.17663C6.62712 9.07834 6.6688 8.98527 6.74028 8.91938C8.16015 7.69354 10.2397 7.69354 11.6595 8.91938C11.731 8.98532 11.7726 9.07843 11.7746 9.17671Z" fill="white"/>
</svg>
