<svg width="20" height="20" viewBox="0 0 20 20" fill="none" xmlns="http://www.w3.org/2000/svg">
<path d="M15 8.33326L11.6667 4.99993M2.08331 17.9166L4.90362 17.6032C5.24819 17.5649 5.42048 17.5458 5.58152 17.4937C5.72439 17.4474 5.86035 17.3821 5.98572 17.2994C6.12702 17.2062 6.2496 17.0836 6.49475 16.8385L17.5 5.83326C18.4205 4.91279 18.4205 3.4204 17.5 2.49993C16.5795 1.57945 15.0871 1.57945 14.1667 2.49992L3.16142 13.5052C2.91627 13.7503 2.79369 13.8729 2.70051 14.0142C2.61784 14.1396 2.55249 14.2755 2.50624 14.4184C2.45411 14.5794 2.43497 14.7517 2.39668 15.0963L2.08331 17.9166Z" stroke="black" stroke-width="1.5" stroke-linecap="round" stroke-linejoin="round"/>
</svg>
