<svg width="28" height="27" viewBox="0 0 28 27" fill="none" xmlns="http://www.w3.org/2000/svg">
<g clip-path="url(#clip0_93_4458)">
<path d="M10.1646 26.9932C9.15262 26.9932 8.13991 26.9715 7.12794 26.9977C5.43758 27.0421 4.07702 26.3554 2.9441 25.1571C2.02755 24.1872 1.43404 23.0243 0.99455 21.7756C0.914163 21.5473 0.996803 21.3782 1.13729 21.2114C2.28148 19.8576 3.64053 18.7698 5.1844 17.9043C6.69446 17.0584 8.33298 16.6279 10.0279 16.3702C11.8016 16.0998 13.5844 15.9646 15.3777 16.0848C16.0313 16.1291 16.6849 16.1929 17.3325 16.2914C18.2768 16.4348 18.8087 16.1373 19.1273 15.2313C20.8492 10.333 22.5711 5.43471 24.293 0.536409C24.4696 0.0375636 24.5207 0 25.0383 0C25.4883 0 25.9383 0 26.3876 0C26.9886 0 27.1509 0.223879 26.9585 0.786583C25.5529 4.90356 24.1488 9.02054 22.7416 13.1368C21.9333 15.5003 21.1512 17.8728 20.2978 20.2198C19.6607 21.9717 18.7809 23.6035 17.5075 24.9918C16.6556 25.9204 15.6714 26.6499 14.4025 26.8986C14.0922 26.9594 13.7714 26.9857 13.4544 26.9887C12.3583 26.9992 11.2614 26.9932 10.1646 26.9932ZM19.7163 19.2371C19.092 19.1717 18.5097 19.1004 17.926 19.0508C15.5437 18.8502 13.1862 18.9944 10.8948 19.7044C10.0346 19.9711 9.22174 20.3903 8.39384 20.7547C8.31646 20.7885 8.22705 20.9462 8.24508 21.0221C8.55761 22.3226 9.07224 23.5314 9.98954 24.5261C11.1886 25.8243 12.6746 26.3389 14.41 25.9715C15.4798 25.7454 16.2777 25.0497 16.9764 24.2458C18.0898 22.9649 18.8388 21.4714 19.4631 19.9072C19.545 19.7014 19.6201 19.4925 19.7163 19.2371ZM2.59551 20.932C2.70595 20.941 2.73224 20.9485 2.75628 20.9447C4.06275 20.7599 5.36921 20.5774 6.67492 20.385C6.98595 20.3392 7.34281 20.34 7.59148 20.1814C8.33223 19.7112 9.11431 19.343 9.93845 19.0575C12.743 18.0884 15.6271 17.9036 18.5578 18.2003C19.0386 18.2492 19.5179 18.316 20.0048 18.3754C20.3939 17.235 20.7763 16.1141 21.1692 14.9631C20.8529 14.885 20.56 14.8136 20.2632 14.74C20.1212 15.1306 20.0033 15.495 19.8583 15.8489C19.4826 16.7647 18.5766 17.3146 17.5969 17.2207C17.1311 17.1756 16.6699 17.0907 16.2048 17.0449C14.0569 16.833 11.9256 16.9795 9.79797 17.3168C7.62604 17.6609 5.66071 18.4633 3.92527 19.8141C3.48652 20.1559 3.07182 20.53 2.59701 20.9312L2.59551 20.932ZM2.06436 21.956C2.0591 21.9995 2.05009 22.0191 2.05535 22.0341C2.34384 22.8688 2.83216 23.587 3.37083 24.2744C3.40989 24.324 3.52108 24.3495 3.5902 24.3375C4.16192 24.2391 4.73213 24.1346 5.30085 24.0205C5.77866 23.925 6.10245 23.632 6.28802 23.188C6.3962 22.9296 6.48635 22.6637 6.58477 22.4007C6.72376 22.0296 6.86199 21.6577 7.0145 21.2475C5.32864 21.4887 3.69387 21.7231 2.06436 21.956ZM7.62904 22.1881C7.48254 22.5765 7.34281 22.9093 7.23011 23.2504C6.8973 24.2586 6.20838 24.8273 5.1581 24.9716C4.87187 25.0114 4.58864 25.0775 4.24305 25.1436C5.02813 25.7183 5.81922 26.0774 6.73052 26.0902C7.8717 26.1052 9.01364 26.094 10.1556 26.0932C10.2202 26.0932 10.2848 26.0797 10.3952 26.0677C8.99861 25.0933 8.20752 23.747 7.62904 22.1881ZM23.0241 9.53215C24.0121 6.6375 24.9865 3.78416 25.9714 0.900025C25.7648 0.900025 25.5957 0.914299 25.4305 0.896269C25.1998 0.871477 25.0939 0.952614 25.015 1.18175C24.3749 3.0374 23.7176 4.88703 23.0669 6.73892C22.7672 7.59236 22.4697 8.44656 22.1647 9.31879C22.4562 9.39091 22.7251 9.45778 23.0241 9.53215ZM21.4607 14.1074C21.6711 13.4906 21.8747 12.8933 22.088 12.2683C21.7785 12.1939 21.4953 12.1255 21.2015 12.0549C20.9829 12.6785 20.7771 13.266 20.5615 13.879C20.8702 13.9579 21.1565 14.0293 21.4607 14.1074ZM21.5051 11.194C21.8206 11.2721 22.0956 11.3405 22.3818 11.4111C22.5012 11.0602 22.6109 10.7364 22.7281 10.3909C22.4224 10.3157 22.1474 10.2474 21.8612 10.1767C21.7402 10.5216 21.6298 10.8379 21.5058 11.1932L21.5051 11.194Z" fill="#1A1A1A"/>
<path d="M10.454 21.5923C10.1798 21.5961 9.97844 21.424 9.95816 21.1806C9.93712 20.9312 10.1069 20.7359 10.3969 20.6938C11.5734 20.5233 12.7514 20.3565 13.9279 20.1874C14.7896 20.0635 15.6521 19.9403 16.513 19.8141C16.8586 19.7637 17.0937 19.8922 17.1448 20.1664C17.1967 20.4459 17.0089 20.6502 16.6407 20.7036C14.6115 20.9973 12.5816 21.2888 10.5524 21.5811C10.5156 21.5863 10.478 21.5893 10.454 21.5916V21.5923Z" fill="#1A1A1A"/>
<path d="M10.9213 23.3909C10.632 23.3962 10.4307 23.2271 10.4082 22.9837C10.3849 22.7343 10.5547 22.536 10.8424 22.4939C11.8611 22.3444 12.8806 22.1979 13.9001 22.0514C14.9196 21.9049 15.939 21.7606 16.9593 21.6149C16.9961 21.6096 17.0336 21.6021 17.0704 21.5999C17.3507 21.5788 17.5663 21.7389 17.5978 21.9905C17.6294 22.2392 17.4604 22.4518 17.1786 22.4931C15.8722 22.684 14.5649 22.8695 13.2585 23.0558C12.5358 23.1595 11.8123 23.2617 11.0896 23.3654C11.025 23.3744 10.9603 23.3856 10.9213 23.3917V23.3909Z" fill="#1A1A1A"/>
<path d="M12.2646 25.1917C11.9768 25.1947 11.777 25.0219 11.7575 24.7785C11.7387 24.5478 11.8934 24.3382 12.1406 24.3014C13.1856 24.1459 14.2314 23.9949 15.2779 23.8522C15.5431 23.8161 15.752 23.9791 15.7956 24.218C15.8361 24.4427 15.6949 24.6906 15.4575 24.7274C14.3854 24.8927 13.3118 25.0414 12.2653 25.1924L12.2646 25.1917Z" fill="#1A1A1A"/>
</g>
<defs>
<clipPath id="clip0_93_4458">
<rect width="26.0722" height="27" fill="white" transform="translate(0.963913)"/>
</clipPath>
</defs>
</svg>
