<svg width="28" height="27" viewBox="0 0 28 27" fill="none" xmlns="http://www.w3.org/2000/svg">
<path d="M14 8.43749C12.9987 8.43749 12.02 8.7344 11.1874 9.29067C10.3549 9.84695 9.70603 10.6376 9.32286 11.5627C8.93969 12.4877 8.83944 13.5056 9.03478 14.4876C9.23011 15.4697 9.71227 16.3717 10.4203 17.0797C11.1283 17.7877 12.0303 18.2699 13.0124 18.4652C13.9944 18.6605 15.0123 18.5603 15.9373 18.1771C16.8624 17.794 17.653 17.1451 18.2093 16.3126C18.7656 15.48 19.0625 14.5013 19.0625 13.5C19.0611 12.1578 18.5273 10.8709 17.5782 9.9218C16.6291 8.9727 15.3422 8.43888 14 8.43749ZM14 16.875C13.3325 16.875 12.68 16.677 12.125 16.3062C11.5699 15.9353 11.1374 15.4082 10.8819 14.7915C10.6265 14.1748 10.5596 13.4962 10.6899 12.8416C10.8201 12.1869 11.1415 11.5855 11.6135 11.1135C12.0855 10.6415 12.6869 10.3201 13.3416 10.1898C13.9963 10.0596 14.6749 10.1264 15.2916 10.3819C15.9083 10.6373 16.4354 11.0699 16.8062 11.6249C17.1771 12.18 17.375 12.8325 17.375 13.5C17.375 14.3951 17.0194 15.2535 16.3865 15.8865C15.7536 16.5194 14.8951 16.875 14 16.875ZM23.2813 13.7278C23.2855 13.5759 23.2855 13.424 23.2813 13.2722L24.8548 11.3062C24.9374 11.203 24.9945 11.0819 25.0216 10.9525C25.0487 10.8232 25.045 10.6893 25.0109 10.5616C24.753 9.59195 24.3671 8.66092 23.8634 7.79307C23.7975 7.6795 23.7059 7.58289 23.5961 7.51093C23.4862 7.43898 23.3611 7.39366 23.2306 7.37858L20.7289 7.10014C20.6248 6.99046 20.5194 6.88499 20.4125 6.78374L20.1172 4.27569C20.102 4.14513 20.0565 4.01993 19.9844 3.91006C19.9122 3.80019 19.8154 3.7087 19.7016 3.64288C18.8335 3.14016 17.9025 2.75466 16.9331 2.49643C16.8053 2.46247 16.6714 2.45899 16.5421 2.48629C16.4127 2.51359 16.2916 2.57089 16.1885 2.65358L14.2278 4.21874C14.0759 4.21874 13.9241 4.21874 13.7722 4.21874L11.8063 2.64831C11.703 2.5658 11.5819 2.50869 11.4525 2.48157C11.3232 2.45446 11.1893 2.45811 11.0616 2.49221C10.0921 2.75064 9.16115 3.1365 8.29309 3.63971C8.17952 3.70566 8.08291 3.79721 8.01095 3.90707C7.93899 4.01692 7.89367 4.14207 7.8786 4.27253L7.60016 6.77846C7.49047 6.88323 7.385 6.9887 7.28375 7.09487L4.77571 7.3828C4.64515 7.39799 4.51994 7.44347 4.41008 7.51562C4.30021 7.58776 4.20872 7.68458 4.14289 7.79835C3.64017 8.66653 3.25467 9.59748 2.99645 10.5669C2.96248 10.6946 2.95901 10.8286 2.98631 10.9579C3.0136 11.0873 3.07091 11.2084 3.1536 11.3115L4.71875 13.2722C4.71875 13.424 4.71875 13.5759 4.71875 13.7278L3.14832 15.6937C3.06581 15.797 3.0087 15.9181 2.98159 16.0474C2.95448 16.1768 2.95812 16.3107 2.99223 16.4383C3.25019 17.408 3.63608 18.3391 4.13973 19.2069C4.20567 19.3205 4.29722 19.4171 4.40708 19.489C4.51694 19.561 4.64208 19.6063 4.77254 19.6214L7.27426 19.8998C7.37903 20.0095 7.48449 20.115 7.59067 20.2162L7.88281 22.7243C7.898 22.8548 7.94348 22.98 8.01563 23.0899C8.08778 23.1998 8.18459 23.2913 8.29836 23.3571C9.16654 23.8598 10.0975 24.2453 11.0669 24.5035C11.1947 24.5375 11.3286 24.541 11.4579 24.5137C11.5873 24.4864 11.7084 24.4291 11.8115 24.3464L13.7722 22.7812C13.9241 22.7855 14.0759 22.7855 14.2278 22.7812L16.1938 24.3548C16.297 24.4373 16.4181 24.4945 16.5475 24.5216C16.6768 24.5487 16.8107 24.545 16.9384 24.5109C17.908 24.253 18.8391 23.8671 19.7069 23.3634C19.8205 23.2975 19.9171 23.2059 19.9891 23.0961C20.061 22.9862 20.1063 22.8611 20.1214 22.7306L20.3998 20.2289C20.5095 20.1248 20.615 20.0194 20.7163 19.9125L23.2243 19.6172C23.3549 19.602 23.4801 19.5565 23.5899 19.4844C23.6998 19.4122 23.7913 19.3154 23.8571 19.2016C24.3598 18.3334 24.7453 17.4025 25.0036 16.4331C25.0375 16.3053 25.041 16.1714 25.0137 16.042C24.9864 15.9127 24.9291 15.7916 24.8464 15.6885L23.2813 13.7278ZM21.5832 13.0423C21.6011 13.3471 21.6011 13.6528 21.5832 13.9577C21.5706 14.1665 21.636 14.3724 21.7667 14.5357L23.2633 16.4057C23.0916 16.9514 22.8717 17.4808 22.6063 17.9877L20.2227 18.2577C20.0151 18.2807 19.8234 18.3799 19.6848 18.5361C19.4817 18.7645 19.2655 18.9807 19.0372 19.1837C18.881 19.3224 18.7818 19.514 18.7588 19.7216L18.494 22.1031C17.9872 22.3687 17.4578 22.5885 16.912 22.7601L15.041 21.2635C14.8913 21.1439 14.7053 21.0788 14.5136 21.079H14.463C14.1581 21.0969 13.8524 21.0969 13.5475 21.079C13.3388 21.0664 13.1328 21.1318 12.9696 21.2625L11.0943 22.7601C10.5486 22.5884 10.0191 22.3685 9.51231 22.1031L9.24231 19.7226C9.21926 19.5151 9.12005 19.3234 8.96387 19.1848C8.73554 18.9817 8.51931 18.7655 8.31629 18.5372C8.17763 18.381 7.98598 18.2818 7.7784 18.2587L5.39692 17.993C5.13134 17.4862 4.91144 16.9567 4.73985 16.4109L6.23645 14.5399C6.36713 14.3767 6.43253 14.1707 6.41996 13.9619C6.40203 13.657 6.40203 13.3514 6.41996 13.0465C6.43253 12.8377 6.36713 12.6318 6.23645 12.4685L4.73985 10.5943C4.91158 10.0486 5.13146 9.51913 5.39692 9.01229L7.77735 8.74229C7.98492 8.71925 8.17658 8.62004 8.31524 8.46385C8.51825 8.23552 8.73448 8.01929 8.96281 7.81628C9.11962 7.67753 9.21924 7.48543 9.24231 7.27733L9.50703 4.8969C10.0138 4.63132 10.5433 4.41143 11.0891 4.23983L12.9601 5.73643C13.1233 5.86711 13.3293 5.93251 13.538 5.91995C13.8429 5.90202 14.1486 5.90202 14.4535 5.91995C14.6623 5.93251 14.8682 5.86711 15.0315 5.73643L16.9057 4.23983C17.4514 4.41156 17.9809 4.63145 18.4877 4.8969L18.7577 7.27733C18.7807 7.48491 18.8799 7.67656 19.0361 7.81522C19.2645 8.01824 19.4807 8.23447 19.6837 8.4628C19.8224 8.61898 20.014 8.71819 20.2216 8.74124L22.6031 9.00596C22.8687 9.51274 23.0886 10.0422 23.2602 10.588L21.7636 12.459C21.6316 12.6236 21.5661 12.8317 21.58 13.0423H21.5832Z" fill="black"/>
</svg>
