<svg width="25" height="24" viewBox="0 0 25 24" fill="none" xmlns="http://www.w3.org/2000/svg">
<path d="M6.34436 11.2288C6.28221 10.8282 6.24996 10.4179 6.24996 10C6.24996 5.58172 9.85525 2 14.3026 2C18.7499 2 22.3552 5.58172 22.3552 10C22.3552 10.9981 22.1713 11.9535 21.8352 12.8345C21.7654 13.0175 21.7304 13.109 21.7146 13.1804C21.6989 13.2512 21.6928 13.301 21.6911 13.3735C21.6894 13.4466 21.6993 13.5272 21.7192 13.6883L22.1217 16.9585C22.1653 17.3125 22.1871 17.4895 22.1282 17.6182C22.0766 17.731 21.985 17.8205 21.8711 17.8695C21.7411 17.9254 21.5646 17.8995 21.2117 17.8478L18.0265 17.3809C17.8601 17.3565 17.777 17.3443 17.7012 17.3448C17.6263 17.3452 17.5745 17.3507 17.5011 17.3661C17.427 17.3817 17.3323 17.4172 17.143 17.4881C16.2597 17.819 15.3024 18 14.3026 18C13.8844 18 13.4737 17.9683 13.0727 17.9073M7.88158 22C10.8465 22 13.25 19.5376 13.25 16.5C13.25 13.4624 10.8465 11 7.88158 11C4.91668 11 2.51316 13.4624 2.51316 16.5C2.51316 17.1106 2.61028 17.6979 2.78955 18.2467C2.86533 18.4787 2.90322 18.5947 2.91566 18.6739C2.92864 18.7567 2.93091 18.8031 2.92608 18.8867C2.92145 18.9668 2.90141 19.0573 2.86134 19.2383L2.25 22L5.2448 21.591C5.40827 21.5687 5.49 21.5575 5.56137 21.558C5.63652 21.5585 5.67641 21.5626 5.75011 21.5773C5.8201 21.5912 5.92416 21.6279 6.13227 21.7014C6.68059 21.8949 7.26911 22 7.88158 22Z" stroke="#737373" stroke-width="2" stroke-linecap="round" stroke-linejoin="round"/>
</svg>
