<svg width="25" height="24" viewBox="0 0 25 24" fill="none" xmlns="http://www.w3.org/2000/svg">
<path d="M12.875 15C14.5319 15 15.875 13.6569 15.875 12C15.875 10.3431 14.5319 9 12.875 9C11.2181 9 9.875 10.3431 9.875 12C9.875 13.6569 11.2181 15 12.875 15Z" stroke="#737373" stroke-width="2" stroke-linecap="round" stroke-linejoin="round"/>
<path d="M19.6023 14.7273C19.4813 15.0015 19.4452 15.3056 19.4986 15.6005C19.5521 15.8954 19.6927 16.1676 19.9023 16.3818L19.9568 16.4364C20.1259 16.6052 20.26 16.8057 20.3515 17.0265C20.443 17.2472 20.4901 17.4838 20.4901 17.7227C20.4901 17.9617 20.443 18.1983 20.3515 18.419C20.26 18.6397 20.1259 18.8402 19.9568 19.0091C19.788 19.1781 19.5874 19.3122 19.3667 19.4037C19.146 19.4952 18.9094 19.5423 18.6705 19.5423C18.4315 19.5423 18.1949 19.4952 17.9742 19.4037C17.7535 19.3122 17.553 19.1781 17.3841 19.0091L17.3295 18.9545C17.1153 18.745 16.8432 18.6044 16.5483 18.5509C16.2534 18.4974 15.9492 18.5335 15.675 18.6545C15.4061 18.7698 15.1768 18.9611 15.0153 19.205C14.8538 19.4489 14.7671 19.7347 14.7659 20.0273V20.1818C14.7659 20.664 14.5744 21.1265 14.2334 21.4675C13.8924 21.8084 13.4299 22 12.9477 22C12.4655 22 12.0031 21.8084 11.6621 21.4675C11.3211 21.1265 11.1295 20.664 11.1295 20.1818V20.1C11.1225 19.7991 11.0251 19.5073 10.85 19.2625C10.6749 19.0176 10.4302 18.8312 10.1477 18.7273C9.87353 18.6063 9.56937 18.5702 9.27447 18.6236C8.97956 18.6771 8.70744 18.8177 8.49318 19.0273L8.43864 19.0818C8.26978 19.2509 8.06925 19.385 7.84853 19.4765C7.6278 19.568 7.39121 19.6151 7.15227 19.6151C6.91334 19.6151 6.67674 19.568 6.45602 19.4765C6.23529 19.385 6.03477 19.2509 5.86591 19.0818C5.69686 18.913 5.56275 18.7124 5.47126 18.4917C5.37976 18.271 5.33266 18.0344 5.33266 17.7955C5.33266 17.5565 5.37976 17.3199 5.47126 17.0992C5.56275 16.8785 5.69686 16.678 5.86591 16.5091L5.92045 16.4545C6.13003 16.2403 6.27062 15.9682 6.3241 15.6733C6.37757 15.3784 6.34147 15.0742 6.22045 14.8C6.10522 14.5311 5.91387 14.3018 5.66997 14.1403C5.42607 13.9788 5.14026 13.8921 4.84773 13.8909H4.69318C4.21097 13.8909 3.74851 13.6994 3.40753 13.3584C3.06656 13.0174 2.875 12.5549 2.875 12.0727C2.875 11.5905 3.06656 11.1281 3.40753 10.7871C3.74851 10.4461 4.21097 10.2545 4.69318 10.2545H4.775C5.0759 10.2475 5.36773 10.1501 5.61254 9.97501C5.85736 9.79991 6.04383 9.55521 6.14773 9.27273C6.26874 8.99853 6.30484 8.69437 6.25137 8.39947C6.1979 8.10456 6.05731 7.83244 5.84773 7.61818L5.79318 7.56364C5.62413 7.39478 5.49003 7.19425 5.39853 6.97353C5.30703 6.7528 5.25993 6.51621 5.25993 6.27727C5.25993 6.03834 5.30703 5.80174 5.39853 5.58102C5.49003 5.36029 5.62413 5.15977 5.79318 4.99091C5.96204 4.82186 6.16257 4.68775 6.38329 4.59626C6.60401 4.50476 6.84061 4.45766 7.07955 4.45766C7.31848 4.45766 7.55508 4.50476 7.7758 4.59626C7.99652 4.68775 8.19705 4.82186 8.36591 4.99091L8.42045 5.04545C8.63471 5.25503 8.90683 5.39562 9.20174 5.4491C9.49664 5.50257 9.8008 5.46647 10.075 5.34545H10.1477C10.4166 5.23022 10.6459 5.03887 10.8074 4.79497C10.969 4.55107 11.0557 4.26526 11.0568 3.97273V3.81818C11.0568 3.33597 11.2484 2.87351 11.5894 2.53253C11.9303 2.19156 12.3928 2 12.875 2C13.3572 2 13.8197 2.19156 14.1606 2.53253C14.5016 2.87351 14.6932 3.33597 14.6932 3.81818V3.9C14.6943 4.19253 14.781 4.47834 14.9426 4.72224C15.1041 4.96614 15.3334 5.15749 15.6023 5.27273C15.8765 5.39374 16.1806 5.42984 16.4755 5.37637C16.7704 5.3229 17.0426 5.18231 17.2568 4.97273L17.3114 4.91818C17.4802 4.74913 17.6807 4.61503 17.9015 4.52353C18.1222 4.43203 18.3588 4.38493 18.5977 4.38493C18.8367 4.38493 19.0733 4.43203 19.294 4.52353C19.5147 4.61503 19.7152 4.74913 19.8841 4.91818C20.0531 5.08704 20.1872 5.28757 20.2787 5.50829C20.3702 5.72901 20.4173 5.96561 20.4173 6.20455C20.4173 6.44348 20.3702 6.68008 20.2787 6.9008C20.1872 7.12152 20.0531 7.32205 19.8841 7.49091L19.8295 7.54545C19.62 7.75971 19.4794 8.03183 19.4259 8.32674C19.3724 8.62164 19.4085 8.9258 19.5295 9.2V9.27273C19.6448 9.54161 19.8361 9.77093 20.08 9.93245C20.3239 10.094 20.6097 10.1807 20.9023 10.1818H21.0568C21.539 10.1818 22.0015 10.3734 22.3425 10.7144C22.6834 11.0553 22.875 11.5178 22.875 12C22.875 12.4822 22.6834 12.9447 22.3425 13.2856C22.0015 13.6266 21.539 13.8182 21.0568 13.8182H20.975C20.6825 13.8193 20.3967 13.906 20.1528 14.0676C19.9089 14.2291 19.7175 14.4584 19.6023 14.7273Z" stroke="#737373" stroke-width="2" stroke-linecap="round" stroke-linejoin="round"/>
</svg>
